<svg width="35" height="36" viewBox="0 0 35 36" fill="none" xmlns="http://www.w3.org/2000/svg"><path d="M14.4543 26.6321C15.0592 26.6321 15.6199 26.6383 16.1807 26.6282C16.3501 26.6254 16.3976 26.675 16.397 26.85C16.3904 28.3263 16.3871 29.802 16.3998 31.2783C16.402 31.5565 16.2541 31.5029 16.1034 31.4809C13.9647 31.171 12.096 30.2732 10.5247 28.7574C8.75526 27.0503 7.7127 24.9538 7.40142 22.4843C7.38376 22.3432 7.34402 22.2913 7.20163 22.2936C6.6867 22.3009 6.17177 22.3032 5.65684 22.2936C5.49347 22.2907 5.45815 22.3528 5.46036 22.5052C5.46753 23.0859 5.46312 23.6671 5.46312 24.2411C5.37039 24.2845 5.32624 24.2207 5.27767 24.1863C3.9277 23.2422 2.57828 22.2964 1.22941 21.3506C1.13724 21.2857 0.989333 21.2507 1.18968 21.1119C2.55841 20.1621 3.92108 19.2033 5.28706 18.2496C5.32845 18.2208 5.36708 18.1666 5.46312 18.201C5.46312 18.7496 5.47195 19.3094 5.4587 19.8681C5.45373 20.0797 5.49623 20.1632 5.72638 20.1536C6.20378 20.1333 6.68229 20.1423 7.16079 20.1508C7.31477 20.1536 7.38266 20.1226 7.40474 19.9443C7.94892 15.5481 11.1329 12.016 15.3826 11.0888C15.6514 11.0301 15.9251 10.9855 16.1983 10.9579C16.3562 10.9421 16.3965 10.8772 16.3948 10.727C16.3882 10.2101 16.3865 9.69263 16.3959 9.1757C16.3987 9.01148 16.344 8.96859 16.1906 8.97085C15.6221 8.97875 15.0531 8.97367 14.4902 8.97367C14.446 8.88394 14.5067 8.83823 14.5404 8.78744C15.4637 7.40653 16.3876 6.02674 17.3137 4.64751C17.3711 4.56174 17.4081 4.39018 17.5477 4.60067C18.4926 6.02335 19.4447 7.44095 20.3934 8.86024C20.4072 8.88112 20.4099 8.91047 20.4293 8.97311C19.8669 8.97311 19.321 8.98496 18.7757 8.96746C18.545 8.96013 18.4799 9.02898 18.4887 9.26317C18.507 9.75132 18.4987 10.2406 18.4915 10.7299C18.4893 10.8839 18.539 10.9353 18.6913 10.9567C22.941 11.5549 26.2249 14.5509 27.2779 18.7834C27.3728 19.166 27.4468 19.5537 27.4827 19.9465C27.497 20.1011 27.5472 20.1536 27.7007 20.1508C28.2062 20.1418 28.7123 20.1384 29.2179 20.1514C29.4011 20.1559 29.4271 20.0808 29.4254 19.9206C29.4177 19.3472 29.4226 18.7738 29.4226 18.205C29.5192 18.1514 29.5689 18.2293 29.6235 18.2676C30.9741 19.2106 32.3235 20.157 33.6734 21.1006C33.7722 21.1694 33.8716 21.2067 33.701 21.3252C32.3097 22.2913 30.9238 23.2648 29.5352 24.2349C29.5143 24.2495 29.4872 24.254 29.4232 24.2777C29.4232 23.7191 29.4066 23.1796 29.4298 22.6418C29.4425 22.3585 29.3674 22.2721 29.086 22.289C28.6367 22.3161 28.1853 22.3037 27.7349 22.293C27.5671 22.289 27.5009 22.3269 27.4794 22.5165C26.9595 27.0379 23.4212 30.7568 18.9959 31.443C18.4915 31.5215 18.4915 31.5215 18.4915 30.9927C18.4921 29.6293 18.4987 28.2659 18.4865 26.903C18.4843 26.6716 18.5533 26.622 18.763 26.6276C19.305 26.6417 19.8475 26.6321 20.3879 26.6321C20.437 26.5215 20.3514 26.4673 20.3089 26.4041C19.4027 25.0458 18.4943 23.6886 17.5853 22.3325C17.5185 22.2326 17.4716 22.0706 17.3275 22.2874C16.3937 23.6948 15.4516 25.096 14.5128 26.5001C14.4924 26.5277 14.4835 26.5627 14.4543 26.6321ZM12.8935 27.9363C12.862 27.6096 12.835 27.3206 12.8063 27.0317C12.6479 25.4521 12.5005 23.8714 12.3267 22.2941C12.2224 21.3489 12.8311 20.5599 13.7655 20.5537C16.2204 20.5374 18.6758 20.5379 21.1313 20.5537C21.9939 20.5594 22.6386 21.2896 22.5652 22.1389C22.4791 23.131 22.3676 24.1203 22.2682 25.1107C22.175 26.0418 22.0839 26.9736 21.9901 27.9222C24.3191 26.368 26.0609 23.0639 25.2541 19.4149C24.461 15.8258 21.3283 13.1537 17.8209 13.0408C14.0845 12.9206 10.8332 15.2665 9.77464 18.8562C8.71442 22.4533 10.2079 26.0718 12.8935 27.9363Z" fill="#7367F0" /><path d="M19.9332 16.9917C19.9338 18.3918 18.8156 19.5295 17.4386 19.5295C16.0632 19.5295 14.9451 18.389 14.9473 16.9889C14.9495 15.5606 16.0599 14.415 17.4414 14.4167C18.825 14.4184 19.9327 15.5634 19.9332 16.9917Z" fill="#7367F0" /></svg>