<svg width="24" height="24" viewBox="0 0 24 24" fill="none" xmlns="http://www.w3.org/2000/svg"><path d="M12.0196 2.90991C8.7096 2.90991 6.0196 5.59991 6.0196 8.90991V11.7999C6.0196 12.4099 5.7596 13.3399 5.4496 13.8599L4.2996 15.7699C3.5896 16.9499 4.0796 18.2599 5.3796 18.6999C9.6896 20.1399 14.3396 20.1399 18.6496 18.6999C19.8596 18.2999 20.3896 16.8699 19.7296 15.7699L18.5796 13.8599C18.2796 13.3399 18.0196 12.4099 18.0196 11.7999V8.90991C18.0196 5.60991 15.3196 2.90991 12.0196 2.90991Z" stroke="#6F6B7D" stroke-width="1.5" stroke-miterlimit="10" stroke-linecap="round" /><path d="M13.87 3.2C13.56 3.11 13.24 3.04 12.91 3C11.95 2.88 11.03 2.95 10.17 3.2C10.46 2.46 11.18 1.94 12.02 1.94C12.86 1.94 13.58 2.46 13.87 3.2Z" stroke="#6F6B7D" stroke-width="1.5" stroke-miterlimit="10" stroke-linecap="round" stroke-linejoin="round" /><path d="M15.0195 19.0601C15.0195 20.7101 13.6695 22.0601 12.0195 22.0601C11.1995 22.0601 10.4395 21.7201 9.89953 21.1801C9.35953 20.6401 9.01953 19.8801 9.01953 19.0601" stroke="#6F6B7D" stroke-width="1.5" stroke-miterlimit="10" /></svg>