<svg class="" width="33" height="32" viewBox="0 0 33 32" fill="none" xmlns="http://www.w3.org/2000/svg"><path d="M16.6603 17.04C16.567 17.0266 16.447 17.0266 16.3403 17.04C13.9936 16.96 12.127 15.04 12.127 12.68C12.127 10.2666 14.0736 8.30664 16.5003 8.30664C18.9136 8.30664 20.8736 10.2666 20.8736 12.68C20.8603 15.04 19.007 16.96 16.6603 17.04Z" stroke="#7367F0" stroke-width="1.5" stroke-linecap="round" stroke-linejoin="round" /><path d="M25.487 25.8401C23.1137 28.0134 19.967 29.3334 16.5003 29.3334C13.0337 29.3334 9.88701 28.0134 7.51367 25.8401C7.64701 24.5867 8.44701 23.3601 9.87367 22.4001C13.527 19.9734 19.5003 19.9734 23.127 22.4001C24.5537 23.3601 25.3537 24.5867 25.487 25.8401Z" stroke="#7367F0" stroke-width="1.5" stroke-linecap="round" stroke-linejoin="round" /><path d="M16.4993 29.3334C23.8631 29.3334 29.8327 23.3639 29.8327 16.0001C29.8327 8.63628 23.8631 2.66675 16.4993 2.66675C9.13555 2.66675 3.16602 8.63628 3.16602 16.0001C3.16602 23.3639 9.13555 29.3334 16.4993 29.3334Z" stroke="#7367F0" stroke-width="1.5" stroke-linecap="round" stroke-linejoin="round" /></svg>